<?xml version="1.0" encoding="utf-8" standalone="no"?>
<!DOCTYPE svg PUBLIC "-//W3C//DTD SVG 1.1//EN" "http://www.w3.org/Graphics/SVG/1.1/DTD/svg11-flat-20030114.dtd">
<!-- Created by SVGDeveloper 1.0 -->
<svg width="440" height="350" version="1.1" xmlns="http://www.w3.org/2000/svg" xmlns:xlink="http://www.w3.org/1999/xlink" viewBox=" 0 ,0 ,440,350">
<text x="175" y="76" xml:space="preserve" font-family="微软雅黑" font-size="9" fill="#000000" stroke="#000000" baseline-shift="baseline" transform="matrix(1,0,0,1,0,90)" xmlns="http://www.w3.org/2000/svg">
</text>
<rect id="rect_id_17" x="181" y="118" width="15" height="28" fill="#00FF00" stroke="#666666" stroke-opacity="1" transform="matrix(1,0,0,1,135.051,-8)" xmlns="http://www.w3.org/2000/svg" />
<rect id="rect_id_18" x="181" y="118" width="15" height="28" fill="#00FF00" stroke="#666666" stroke-opacity="1" transform="matrix(1,0,0,1,136.051,66)" xmlns="http://www.w3.org/2000/svg" />
<rect id="rect_id_19" x="181" y="118" width="15" height="28" fill="#00FF00" stroke="#666666" stroke-opacity="1" transform="matrix(1,0,0,1,170.051,-8.28201)" xmlns="http://www.w3.org/2000/svg" />
<rect id="rect_id_20" x="181" y="118" width="15" height="28" fill="#00FF00" stroke="#666666" stroke-opacity="1" transform="matrix(1,0,0,1,171.051,67)" xmlns="http://www.w3.org/2000/svg" />
<rect id="rect_id_21" x="181" y="118" width="15" height="28" fill="#00FF00" stroke="#666666" stroke-opacity="1" transform="matrix(1,0,0,1,64.051,-9)" xmlns="http://www.w3.org/2000/svg" />
<rect id="rect_id_22" x="181" y="118" width="15" height="28" fill="#00FF00" stroke="#666666" stroke-opacity="1" transform="matrix(1,0,0,1,65.051,65)" xmlns="http://www.w3.org/2000/svg" />
<rect id="rect_id_23" x="181" y="118" width="15" height="28" fill="#00FF00" stroke="#666666" stroke-opacity="1" transform="matrix(1,0,0,1,99.051,-8)" xmlns="http://www.w3.org/2000/svg" />
<rect id="rect_id_24" x="181" y="118" width="15" height="28" fill="#00FF00" stroke="#666666" stroke-opacity="1" transform="matrix(1,0,0,1,100.051,66)" xmlns="http://www.w3.org/2000/svg" />
<rect id="rect_id_25" x="181" y="118" width="15" height="28" fill="#00FF00" stroke="#666666" stroke-opacity="1" transform="matrix(1,0,0,1,-31.949,-9)" xmlns="http://www.w3.org/2000/svg" />
<rect id="rect_id_26" x="181" y="118" width="15" height="28" fill="#00FF00" stroke="#666666" stroke-opacity="1" transform="matrix(1,0,0,1,-30.949,65)" xmlns="http://www.w3.org/2000/svg" />
<rect id="rect_id_27" x="181" y="118" width="15" height="28" fill="#00FF00" stroke="#666666" stroke-opacity="1" transform="matrix(1,0,0,1,3.051,-8.96201)" xmlns="http://www.w3.org/2000/svg" />
<rect id="rect_id_28" x="181" y="118" width="15" height="28" fill="#00FF00" stroke="#666666" stroke-opacity="1" transform="matrix(1,0,0,1,4.051,66)" xmlns="http://www.w3.org/2000/svg" />
<rect id="rect_id_29" x="181" y="118" width="15" height="28" fill="#00FF00" stroke="#666666" stroke-opacity="1" transform="matrix(1,0,0,1,-102.949,-10)" xmlns="http://www.w3.org/2000/svg" />
<rect id="rect_id_30" x="181" y="118" width="15" height="28" fill="#00FF00" stroke="#666666" stroke-opacity="1" transform="matrix(1,0,0,1,-101.949,64)" xmlns="http://www.w3.org/2000/svg" />
<rect id="rect_id_31" x="181" y="118" width="15" height="28" fill="#00FF00" stroke="#666666" stroke-opacity="1" transform="matrix(1,0,0,1,-67.949,-9)" xmlns="http://www.w3.org/2000/svg" />
<rect id="rect_id_32" x="181" y="118" width="15" height="28" fill="#00FF00" stroke="#666666" stroke-opacity="1" transform="matrix(1,0,0,1,-66.949,65)" xmlns="http://www.w3.org/2000/svg" />
<line id="line_id_17" x1="127" y1="119" x2="127" y2="134" stroke="#00FF00" fill="#00FF00" transform="matrix(1,0,0,1,231.051,21)" stroke-width="2" xmlns="http://www.w3.org/2000/svg" />
<line id="line_id_18" x1="127" y1="119" x2="127" y2="134" stroke="#00FF00" fill="#00FF00" transform="matrix(1,0,0,1,233.051,95)" stroke-width="2" xmlns="http://www.w3.org/2000/svg" />
<line id="line_id_19" x1="127" y1="119" x2="127" y2="134" stroke="#00FF00" fill="#00FF00" transform="matrix(1,0,0,1,-41.949,18)" stroke-width="2" xmlns="http://www.w3.org/2000/svg" />
<line id="line_id_20" x1="127" y1="119" x2="127" y2="134" stroke="#00FF00" fill="#00FF00" transform="matrix(1,0,0,1,-39.949,92)" stroke-width="2" xmlns="http://www.w3.org/2000/svg" />
<line id="line_id_21" x1="127" y1="119" x2="127" y2="134" stroke="#00FF00" fill="#00FF00" transform="matrix(1,0,0,1,-6.949,19)" stroke-width="2" xmlns="http://www.w3.org/2000/svg" />
<line id="line_id_22" x1="127" y1="119" x2="127" y2="134" stroke="#00FF00" fill="#00FF00" transform="matrix(1,0,0,1,-4.949,93)" stroke-width="2" xmlns="http://www.w3.org/2000/svg" />
<line id="line_id_23" x1="127" y1="119" x2="127" y2="134" stroke="#00FF00" fill="#00FF00" transform="matrix(1,0,0,1,29.051,19)" stroke-width="2" xmlns="http://www.w3.org/2000/svg" />
<line id="line_id_24" x1="127" y1="119" x2="127" y2="134" stroke="#00FF00" fill="#00FF00" transform="matrix(1,0,0,1,31.051,93)" stroke-width="2" xmlns="http://www.w3.org/2000/svg" />
<line id="line_id_25" x1="127" y1="119" x2="127" y2="134" stroke="#00FF00" fill="#00FF00" transform="matrix(1,0,0,1,64.051,20)" stroke-width="2" xmlns="http://www.w3.org/2000/svg" />
<line id="line_id_26" x1="127" y1="119" x2="127" y2="134" stroke="#00FF00" fill="#00FF00" transform="matrix(1,0,0,1,66.051,94)" stroke-width="2" xmlns="http://www.w3.org/2000/svg" />
<line id="line_id_27" x1="127" y1="119" x2="127" y2="134" stroke="#00FF00" fill="#00FF00" transform="matrix(1,0,0,1,125.051,19)" stroke-width="2" xmlns="http://www.w3.org/2000/svg" />
<line id="line_id_28" x1="127" y1="119" x2="127" y2="134" stroke="#00FF00" fill="#00FF00" transform="matrix(1,0,0,1,127.051,93)" stroke-width="2" xmlns="http://www.w3.org/2000/svg" />
<line id="line_id_29" x1="127" y1="119" x2="127" y2="134" stroke="#00FF00" fill="#00FF00" transform="matrix(1,0,0,1,161.051,20)" stroke-width="2" xmlns="http://www.w3.org/2000/svg" />
<line id="line_id_30" x1="127" y1="119" x2="127" y2="134" stroke="#00FF00" fill="#00FF00" transform="matrix(1,0,0,1,162.051,94)" stroke-width="2" xmlns="http://www.w3.org/2000/svg" />
<line id="line_id_31" x1="127" y1="119" x2="127" y2="134" stroke="#00FF00" fill="#00FF00" transform="matrix(1,0,0,1,197.051,19)" stroke-width="2" xmlns="http://www.w3.org/2000/svg" />
<line id="line_id_32" x1="127" y1="119" x2="127" y2="134" stroke="#00FF00" fill="#00FF00" transform="matrix(1,0,0,1,198.051,93)" stroke-width="2" xmlns="http://www.w3.org/2000/svg" />
<line x1="92" y1="136" x2="467" y2="136" stroke="#00FF00" fill="#00FF00" stroke-width="2" transform="matrix(1,0,0,1,-38.949,19)" xmlns="http://www.w3.org/2000/svg" />
<line x1="92" y1="136" x2="467" y2="136" stroke="#00FF00" fill="#00FF00" stroke-width="2" transform="matrix(1,0,0,1,-37.949,94)" xmlns="http://www.w3.org/2000/svg" />
<text id="text_id_33" x="113" y="79" xml:space="preserve" font-family="微软雅黑" font-size="9" fill="#000000" stroke="#000000" stroke-width="1" transform="matrix(1,0,0,1,196.384,68.833)" xmlns="http://www.w3.org/2000/svg">
3A11</text>
<text id="text_id_34" x="113" y="79" xml:space="preserve" font-family="微软雅黑" font-size="9" fill="#000000" stroke="#000000" stroke-width="1" transform="matrix(1,0,0,1,230.384,68.22999)" xmlns="http://www.w3.org/2000/svg">
3A11</text>
<text id="text_id_35" x="113" y="79" xml:space="preserve" font-family="微软雅黑" font-size="9" fill="#000000" stroke="#000000" stroke-width="1" transform="matrix(1,0,0,1,125.679,68.641)" xmlns="http://www.w3.org/2000/svg">
3A11</text>
<text id="text_id_36" x="113" y="79" xml:space="preserve" font-family="微软雅黑" font-size="9" fill="#000000" stroke="#000000" stroke-width="1" transform="matrix(1,0,0,1,159.679,68.03799)" xmlns="http://www.w3.org/2000/svg">
3A11</text>
<text id="text_id_37" x="113" y="79" xml:space="preserve" font-family="微软雅黑" font-size="9" fill="#000000" stroke="#000000" stroke-width="1" transform="matrix(1,0,0,1,30.166,69.282)" xmlns="http://www.w3.org/2000/svg">
3A11</text>
<text id="text_id_38" x="113" y="79" xml:space="preserve" font-family="微软雅黑" font-size="9" fill="#000000" stroke="#000000" stroke-width="1" transform="matrix(1,0,0,1,64.166,68.679)" xmlns="http://www.w3.org/2000/svg">
3A11</text>
<text id="text_id_39" x="113" y="79" xml:space="preserve" font-family="微软雅黑" font-size="9" fill="#000000" stroke="#000000" stroke-width="1" transform="matrix(1,0,0,1,-40.539,69.09)" xmlns="http://www.w3.org/2000/svg">
3A11</text>
<text id="text_id_40" x="113" y="79" xml:space="preserve" font-family="微软雅黑" font-size="9" fill="#000000" stroke="#000000" stroke-width="1" transform="matrix(1,0,0,1,-6.539,68.48699)" xmlns="http://www.w3.org/2000/svg">
3A11</text>
<text id="text_id_41" x="113" y="79" xml:space="preserve" font-family="微软雅黑" font-size="9" fill="#000000" stroke="#000000" stroke-width="1" transform="matrix(1,0,0,1,202.281,99.09)" xmlns="http://www.w3.org/2000/svg">
3A11</text>
<text id="text_id_42" x="113" y="79" xml:space="preserve" font-family="微软雅黑" font-size="9" fill="#000000" stroke="#000000" stroke-width="1" transform="matrix(1,0,0,1,236.281,98.487)" xmlns="http://www.w3.org/2000/svg">
3A11</text>
<text id="text_id_43" x="113" y="79" xml:space="preserve" font-family="微软雅黑" font-size="9" fill="#000000" stroke="#000000" stroke-width="1" transform="matrix(1,0,0,1,131.576,98.89799)" xmlns="http://www.w3.org/2000/svg">
3A11</text>
<text id="text_id_44" x="113" y="79" xml:space="preserve" font-family="微软雅黑" font-size="9" fill="#000000" stroke="#000000" stroke-width="1" transform="matrix(1,0,0,1,165.576,98.295)" xmlns="http://www.w3.org/2000/svg">
3A11</text>
<text id="text_id_45" x="113" y="79" xml:space="preserve" font-family="微软雅黑" font-size="9" fill="#000000" stroke="#000000" stroke-width="1" transform="matrix(1,0,0,1,36.063,99.53799)" xmlns="http://www.w3.org/2000/svg">
3A11</text>
<text id="text_id_46" x="113" y="79" xml:space="preserve" font-family="微软雅黑" font-size="9" fill="#000000" stroke="#000000" stroke-width="1" transform="matrix(1,0,0,1,70.063,98.935)" xmlns="http://www.w3.org/2000/svg">
3A11</text>
<text id="text_id_47" x="113" y="79" xml:space="preserve" font-family="微软雅黑" font-size="9" fill="#000000" stroke="#000000" stroke-width="1" transform="matrix(1,0,0,1,-34.642,99.346)" xmlns="http://www.w3.org/2000/svg">
3A11</text>
<text id="text_id_48" x="113" y="79" xml:space="preserve" font-family="微软雅黑" font-size="9" fill="#000000" stroke="#000000" stroke-width="1" transform="matrix(1,0,0,1,-0.642,98.743)" xmlns="http://www.w3.org/2000/svg">
3A11</text>
<text id="text_id_49" x="113" y="79" xml:space="preserve" font-family="微软雅黑" font-size="9" fill="#000000" stroke="#000000" stroke-width="1" transform="matrix(1,0,0,1,199.717,143.962)" xmlns="http://www.w3.org/2000/svg">
3A11</text>
<text id="text_id_50" x="113" y="79" xml:space="preserve" font-family="微软雅黑" font-size="9" fill="#000000" stroke="#000000" stroke-width="1" transform="matrix(1,0,0,1,233.717,143.359)" xmlns="http://www.w3.org/2000/svg">
3A11</text>
<text id="text_id_51" x="113" y="79" xml:space="preserve" font-family="微软雅黑" font-size="9" fill="#000000" stroke="#000000" stroke-width="1" transform="matrix(1,0,0,1,129.012,143.77)" xmlns="http://www.w3.org/2000/svg">
3A11</text>
<text id="text_id_52" x="113" y="79" xml:space="preserve" font-family="微软雅黑" font-size="9" fill="#000000" stroke="#000000" stroke-width="1" transform="matrix(1,0,0,1,163.012,143.167)" xmlns="http://www.w3.org/2000/svg">
3A11</text>
<text id="text_id_53" x="113" y="79" xml:space="preserve" font-family="微软雅黑" font-size="9" fill="#000000" stroke="#000000" stroke-width="1" transform="matrix(1,0,0,1,33.499,144.41)" xmlns="http://www.w3.org/2000/svg">
3A11</text>
<text id="text_id_54" x="113" y="79" xml:space="preserve" font-family="微软雅黑" font-size="9" fill="#000000" stroke="#000000" stroke-width="1" transform="matrix(1,0,0,1,67.499,143.807)" xmlns="http://www.w3.org/2000/svg">
3A11</text>
<text id="text_id_55" x="113" y="79" xml:space="preserve" font-family="微软雅黑" font-size="9" fill="#000000" stroke="#000000" stroke-width="1" transform="matrix(1,0,0,1,-37.206,144.218)" xmlns="http://www.w3.org/2000/svg">
3A11</text>
<text id="text_id_56" x="113" y="79" xml:space="preserve" font-family="微软雅黑" font-size="9" fill="#000000" stroke="#000000" stroke-width="1" transform="matrix(1,0,0,1,-3.206,143.615)" xmlns="http://www.w3.org/2000/svg">
3A11</text>
<text id="text_id_57" x="113" y="79" xml:space="preserve" font-family="微软雅黑" font-size="9" fill="#000000" stroke="#000000" stroke-width="1" transform="matrix(1,0,0,1,198.434,24.73099)" xmlns="http://www.w3.org/2000/svg">
3A11</text>
<text id="text_id_58" x="113" y="79" xml:space="preserve" font-family="微软雅黑" font-size="9" fill="#000000" stroke="#000000" stroke-width="1" transform="matrix(1,0,0,1,232.435,24.12799)" xmlns="http://www.w3.org/2000/svg">
3A11</text>
<text id="text_id_59" x="113" y="79" xml:space="preserve" font-family="微软雅黑" font-size="9" fill="#000000" stroke="#000000" stroke-width="1" transform="matrix(1,0,0,1,127.73,24.53899)" xmlns="http://www.w3.org/2000/svg">
3A11</text>
<text id="text_id_60" x="113" y="79" xml:space="preserve" font-family="微软雅黑" font-size="9" fill="#000000" stroke="#000000" stroke-width="1" transform="matrix(1,0,0,1,161.73,23.93599)" xmlns="http://www.w3.org/2000/svg">
3A11</text>
<text id="text_id_61" x="113" y="79" xml:space="preserve" font-family="微软雅黑" font-size="9" fill="#000000" stroke="#000000" stroke-width="1" transform="matrix(1,0,0,1,32.217,25.17899)" xmlns="http://www.w3.org/2000/svg">
3A11</text>
<text id="text_id_62" x="113" y="79" xml:space="preserve" font-family="微软雅黑" font-size="9" fill="#000000" stroke="#000000" stroke-width="1" transform="matrix(1,0,0,1,66.216,24.57599)" xmlns="http://www.w3.org/2000/svg">
3A11</text>
<text id="text_id_63" x="113" y="79" xml:space="preserve" font-family="微软雅黑" font-size="9" fill="#000000" stroke="#000000" stroke-width="1" transform="matrix(1,0,0,1,-38.488,24.987)" xmlns="http://www.w3.org/2000/svg">
3A11</text>
<text id="text_id_64" x="113" y="79" xml:space="preserve" font-family="微软雅黑" font-size="9" fill="#000000" stroke="#000000" stroke-width="1" transform="matrix(1,0,0,1,-4.488,24.38399)" xmlns="http://www.w3.org/2000/svg">
3A11</text>
<line x1="467.9487" y1="137.1795" x2="467.9487" y2="212.8205" stroke="#00FF00" fill="#00FF00" stroke-width="2" transform="matrix(1,0,0,1,-38.949,17)" xmlns="http://www.w3.org/2000/svg" />
<!--<text x="42.30768" y="142.3077" xml:space="preserve" font-family="微软雅黑" font-size="9" fill="#000000" stroke="#000000" stroke-width="0.25" baseline-shift="baseline" transform="matrix(1,0,0,1,-41.513,46.43599)" xmlns="http://www.w3.org/2000/svg">
#3炉通讯</text>-->
<text x="42.30768" y="142.3077" xml:space="preserve" font-family="微软雅黑" font-size="9" fill="#000000" stroke="#000000" stroke-width="0.25" baseline-shift="baseline" transform="matrix(1,0,0,1,-26.744,91.564)" xmlns="http://www.w3.org/2000/svg">
10baseT</text>
</svg>
